<?xml version="1.0" encoding="UTF-8" standalone="no"?>
<svg
   xmlns:dc="http://purl.org/dc/elements/1.1/"
   xmlns:cc="http://creativecommons.org/ns#"
   xmlns:rdf="http://www.w3.org/1999/02/22-rdf-syntax-ns#"
   xmlns:svg="http://www.w3.org/2000/svg"
   xmlns="http://www.w3.org/2000/svg"
   t="1645898052288"
   class="icon"
   viewBox="0 0 1024 1024"
   version="1.1"
   p-id="2921"
   width="200"
   height="200"
   id="svg68">
  <metadata
     id="metadata72">
    <rdf:RDF>
      <cc:Work
         rdf:about="">
        <dc:format>image/svg+xml</dc:format>
        <dc:type
           rdf:resource="http://purl.org/dc/dcmitype/StillImage" />
        <dc:title></dc:title>
      </cc:Work>
    </rdf:RDF>
  </metadata>
  <defs
     id="defs4">
    <style
       type="text/css"
       id="style2" />
    <style
       type="text/css"
       id="style1506" />
    <style
       type="text/css"
       id="style1544" />
  </defs>
  <path
     d="M512 302.545455m-279.272727 0a279.272727 279.272727 0 1 0 558.545454 0 279.272727 279.272727 0 1 0-558.545454 0Z"
     fill="#3BB54A"
     p-id="2922"
     id="path6" />
  <path
     d="M512 605.090909c-167.563636 0-302.545455-134.981818-302.545455-302.545454S344.436364 0 512 0s302.545455 134.981818 302.545455 302.545455-134.981818 302.545455-302.545455 302.545454z m0-558.545454c-141.963636 0-256 114.036364-256 256s114.036364 256 256 256 256-114.036364 256-256S653.963636 46.545455 512 46.545455z"
     fill="#0B3A5B"
     p-id="2923"
     id="path8" />
  <path
     d="M363.054545 509.672727L719.127273 153.6c-25.6-34.909091-60.509091-62.836364-100.072728-81.454545L279.272727 411.927273c18.618182 39.563636 48.872727 72.145455 83.781818 97.745454zM512 558.545455c141.963636 0 256-114.036364 256-256 0-34.909091-6.981818-67.490909-18.618182-97.745455L414.254545 539.927273c30.254545 11.636364 62.836364 18.618182 97.745455 18.618182z"
     fill="#89C763"
     p-id="2924"
     id="path10" />
  <path
     d="M512 302.545455m-186.181818 0a186.181818 186.181818 0 1 0 372.363636 0 186.181818 186.181818 0 1 0-372.363636 0Z"
     fill="#89C763"
     p-id="2925"
     id="path12" />
  <path
     d="M512 116.363636c102.4 0 186.181818 83.781818 186.181818 186.181819s-83.781818 186.181818-186.181818 186.181818-186.181818-83.781818-186.181818-186.181818 83.781818-186.181818 186.181818-186.181819m0-23.272727c-116.363636 0-209.454545 93.090909-209.454545 209.454546s93.090909 209.454545 209.454545 209.454545 209.454545-93.090909 209.454545-209.454545-93.090909-209.454545-209.454545-209.454546z"
     fill="#0B3A5B"
     p-id="2926"
     id="path14" />
  <path
     d="M349.090909 325.818182c0-102.4 83.781818-186.181818 186.181818-186.181818 46.545455 0 86.109091 16.290909 118.690909 44.218181C621.381818 141.963636 570.181818 116.363636 512 116.363636c-102.4 0-186.181818 83.781818-186.181818 186.181819 0 58.181818 25.6 109.381818 67.490909 141.963636C365.381818 411.927273 349.090909 372.363636 349.090909 325.818182z"
     fill="#3BB54A"
     p-id="2927"
     id="path16" />
  <path
     d="M565.527273 125.672727l-232.727273 232.727273c13.963636 41.890909 41.890909 79.127273 79.127273 102.4l256-256c-23.272727-39.563636-58.181818-67.490909-102.4-79.127273z"
     fill="#AED477"
     p-id="2928"
     id="path18" />
  <path
     d="M551.563636 139.636364c39.563636 2.327273 74.472727 18.618182 104.727273 41.890909-23.272727-27.927273-53.527273-46.545455-88.436364-58.181818l-16.290909 16.290909zM393.309091 444.509091c-23.272727-27.927273-39.563636-65.163636-41.890909-104.727273l-16.290909 16.290909c9.309091 34.909091 30.254545 67.490909 58.181818 88.436364z"
     fill="#89C763"
     p-id="2929"
     id="path20" />
  <path
     d="M512 488.727273c102.4 0 186.181818-83.781818 186.181818-186.181818 0-13.963636-2.327273-30.254545-4.654545-44.218182l-223.418182 223.418182c11.636364 4.654545 27.927273 6.981818 41.890909 6.981818z"
     fill="#AED477"
     p-id="2930"
     id="path22" />
  <path
     d="M535.272727 279.272727h-46.545454c-13.963636 0-23.272727-9.309091-23.272728-23.272727s9.309091-23.272727 23.272728-23.272727h69.818182c13.963636 0 23.272727-9.309091 23.272727-23.272728s-9.309091-23.272727-23.272727-23.272727h-23.272728c0-13.963636-9.309091-23.272727-23.272727-23.272727s-23.272727 9.309091-23.272727 23.272727c-39.563636 0-69.818182 30.254545-69.818182 69.818182s30.254545 69.818182 69.818182 69.818182h46.545454c13.963636 0 23.272727 9.309091 23.272728 23.272727s-9.309091 23.272727-23.272728 23.272727h-69.818182c-13.963636 0-23.272727 9.309091-23.272727 23.272728s9.309091 23.272727 23.272727 23.272727h23.272728c0 13.963636 9.309091 23.272727 23.272727 23.272727s23.272727-9.309091 23.272727-23.272727c39.563636 0 69.818182-30.254545 69.818182-69.818182s-30.254545-69.818182-69.818182-69.818182z"
     fill="#0B3A5B"
     p-id="2931"
     id="path24" />
  <path
     d="M302.545455 721.454545m-279.272728 0a279.272727 279.272727 0 1 0 558.545455 0 279.272727 279.272727 0 1 0-558.545455 0Z"
     fill="#F5B445"
     p-id="2932"
     id="path26" />
  <path
     d="M302.545455 1024C134.981818 1024 0 889.018182 0 721.454545s134.981818-302.545455 302.545455-302.545454 302.545455 134.981818 302.545454 302.545454-134.981818 302.545455-302.545454 302.545455z m0-558.545455C160.581818 465.454545 46.545455 579.490909 46.545455 721.454545s114.036364 256 256 256 256-114.036364 256-256-114.036364-256-256-256z"
     fill="#0B3A5B"
     p-id="2933"
     id="path28" />
  <path
     d="M153.6 928.581818l356.072727-356.072727c-25.6-34.909091-60.509091-62.836364-100.072727-81.454546L69.818182 830.836364c18.618182 39.563636 48.872727 72.145455 83.781818 97.745454zM302.545455 977.454545c141.963636 0 256-114.036364 256-256 0-34.909091-6.981818-67.490909-18.618182-97.745454L204.8 958.836364c30.254545 11.636364 62.836364 18.618182 97.745455 18.618181z"
     fill="#FFCB5B"
     p-id="2934"
     id="path30" />
  <path
     d="M302.545455 721.454545m-186.181819 0a186.181818 186.181818 0 1 0 372.363637 0 186.181818 186.181818 0 1 0-372.363637 0Z"
     fill="#FFCB5B"
     p-id="2935"
     id="path32" />
  <path
     d="M302.545455 535.272727c102.4 0 186.181818 83.781818 186.181818 186.181818s-83.781818 186.181818-186.181818 186.181819-186.181818-83.781818-186.181819-186.181819 83.781818-186.181818 186.181819-186.181818m0-23.272727c-116.363636 0-209.454545 93.090909-209.454546 209.454545s93.090909 209.454545 209.454546 209.454546 209.454545-93.090909 209.454545-209.454546-93.090909-209.454545-209.454545-209.454545z"
     fill="#0B3A5B"
     p-id="2936"
     id="path34" />
  <path
     d="M139.636364 744.727273c0-102.4 83.781818-186.181818 186.181818-186.181818 46.545455 0 86.109091 16.290909 118.690909 44.218181-32.581818-41.890909-83.781818-67.490909-141.963636-67.490909-102.4 0-186.181818 83.781818-186.181819 186.181818 0 58.181818 25.6 109.381818 67.490909 141.963637C155.927273 830.836364 139.636364 791.272727 139.636364 744.727273z"
     fill="#F6B545"
     p-id="2937"
     id="path36" />
  <path
     d="M356.072727 544.581818l-232.727272 232.727273c13.963636 41.890909 41.890909 79.127273 79.127272 102.4l256-256c-23.272727-39.563636-58.181818-67.490909-102.4-79.127273z"
     fill="#FFE27A"
     p-id="2938"
     id="path38" />
  <path
     d="M342.109091 558.545455c39.563636 2.327273 74.472727 18.618182 104.727273 41.890909-23.272727-27.927273-53.527273-46.545455-88.436364-58.181819l-16.290909 16.29091zM183.854545 863.418182c-23.272727-27.927273-39.563636-65.163636-41.890909-104.727273l-16.290909 16.290909c9.309091 34.909091 30.254545 67.490909 58.181818 88.436364z"
     fill="#FFCB5B"
     p-id="2939"
     id="path40" />
  <path
     d="M302.545455 907.636364c102.4 0 186.181818-83.781818 186.181818-186.181819 0-13.963636-2.327273-30.254545-4.654546-44.218181l-223.418182 223.418181c11.636364 4.654545 27.927273 6.981818 41.89091 6.981819z"
     fill="#FFE27A"
     p-id="2940"
     id="path42" />
  <path
     d="M386.327273 709.818182c4.654545-11.636364 9.309091-23.272727 9.309091-34.909091 0-39.563636-30.254545-69.818182-69.818182-69.818182 0-13.963636-9.309091-23.272727-23.272727-23.272727s-23.272727 9.309091-23.272728 23.272727h-46.545454c-13.963636 0-23.272727 9.309091-23.272728 23.272727s9.309091 23.272727 23.272728 23.272728v139.636363c-13.963636 0-23.272727 9.309091-23.272728 23.272728s9.309091 23.272727 23.272728 23.272727h46.545454c0 13.963636 9.309091 23.272727 23.272728 23.272727s23.272727-9.309091 23.272727-23.272727h23.272727c39.563636 0 69.818182-30.254545 69.818182-69.818182 0-25.6-13.963636-46.545455-32.581818-58.181818zM325.818182 651.636364c13.963636 0 23.272727 9.309091 23.272727 23.272727s-9.309091 23.272727-23.272727 23.272727h-46.545455v-46.545454h46.545455z m23.272727 139.636363h-69.818182v-46.545454h69.818182c13.963636 0 23.272727 9.309091 23.272727 23.272727s-9.309091 23.272727-23.272727 23.272727z"
     fill="#0B3A5B"
     p-id="2941"
     id="path44" />
  <path
     d="M721.454545 837.818182c102.4 0 186.181818-83.781818 186.181819-186.181818 0-13.963636-2.327273-30.254545-4.654546-44.218182l-223.418182 223.418182c11.636364 4.654545 27.927273 6.981818 41.890909 6.981818z"
     fill="#FFFFFF"
     p-id="2950"
     id="path62" />
  <g
     id="g1564"
     transform="matrix(0.66022783,0,0,0.66022783,246.66472,329.97718)">
    <path
       d="m 1140.9714,675.73188 a 45.43738,45.43738 0 0 1 -64.4046,0 l -19.4919,-19.5706 -3.9744,-3.97446 -0.1837,-0.18364 -27.0604,-27.09978 -0.3541,-0.34104 -0.053,-0.0656 v 0.0131 a 15.084581,15.084581 0 0 0 -10.4936,-4.24991 15.215751,15.215751 0 0 0 -10.7953,25.93236 l -0.013,0.0131 0.039,0.0262 0.079,0.0787 39.9807,39.95446 12.5268,12.553 16.6717,16.73733 a 68.51023,68.51023 0 0 1 0,96.65937 67.89373,67.89373 0 0 1 -93.74739,2.32171 c -92.14712,126.57931 -241.09095,208.88862 -409.26435,208.88862 -279.77307,0 -506.579574,-227.5935 -506.579574,-508.33722 0,-42.368 5.259928,-83.47676 14.979644,-122.82784 L 20.370742,333.60048 a 68.51023,68.51023 0 0 1 0,-96.65937 67.946198,67.946198 0 0 1 96.318328,0 l 18.31137,18.37695 0.19675,-0.31481 13.83847,13.15638 c 6.29617,6.82085 15.26822,11.11012 25.26339,11.11012 a 34.524014,34.524014 0 0 0 34.45843,-34.5896 c 0,-11.45116 -5.56162,-21.56439 -14.1008,-27.86056 l -19.19021,-19.88542 0.0262,-0.0525 -2.34795,-2.34795 -0.0131,-0.0131 -20.44945,-20.52815 a 45.804657,45.804657 0 0 1 0,-64.62759 45.424263,45.424263 0 0 1 64.4046,0 l 20.14775,20.21334 38.32796,38.669 c 1.79703,2.21678 3.80393,4.24991 5.99448,6.04695 l 0.0394,0.0394 h 0.0131 a 41.187464,41.187464 0 0 0 26.16846,9.35244 41.541623,41.541623 0 0 0 41.46293,-41.62033 c 0,-10.16569 -3.63342,-19.46567 -9.66725,-26.69315 h 0.0131 l -0.0525,-0.0393 a 41.77773,41.77773 0 0 0 -3.97446,-4.09251 L 306.40063,81.202648 267.88904,42.54677 a 17.262007,17.262007 0 0 1 0,-24.371436 17.130837,17.130837 0 0 1 24.27961,0 l 45.35868,45.516083 A 502.81498,502.81498 0 0 1 570.43326,6.737287 c 279.75994,0 506.56644,227.593533 506.56644,508.350373 0,10.74284 -0.446,21.39387 -1.1018,31.97931 2.466,1.65274 4.827,3.56783 7.0045,5.74526 l 58.069,58.27894 a 45.817774,45.817774 0 0 1 0,64.64071 z M 119.90274,103.72458 a 13.444952,13.444952 0 0 1 -19.04592,0 L 52.336936,55.021062 a 13.549889,13.549889 0 0 1 0,-19.111507 L 83.962088,4.16635 a 13.418718,13.418718 0 0 1 19.045922,0 l 48.533,48.690403 a 13.549889,13.549889 0 0 1 0,19.111508 z"
       fill="#9fdeff"
       p-id="4049"
       id="path1548" />
    <path
       d="m 725.60768,419.21531 a 309.03715,309.03715 0 0 0 -41.20058,-34.79947 87.123291,87.123291 0 0 0 -6.55851,-4.48603 c 20.22645,-9.92959 33.5927,-27.87368 33.5927,-48.50676 0,-32.59581 -32.54334,-57.41323 -71.09428,-57.41323 -8.95893,0 -17.05214,1.48223 -24.39767,4.2368 a 47.221296,47.221296 0 0 0 -8.3949,3.71212 c -1.04936,0.47221 -3.92199,-0.2361 -4.97135,-1.49534 -2.88575,-4.24992 -7.35865,-9.20815 -13.66794,-14.41561 -10.91337,-9.02452 -23.71559,-14.95341 -38.06561,-16.14706 -14.28445,1.19365 -27.08667,7.12254 -38.06562,16.14706 a 73.376647,73.376647 0 0 0 -13.66794,14.41561 c -1.03624,1.25924 -3.92199,1.96755 -4.95823,1.49534 a 39.456016,39.456016 0 0 0 -8.40802,-3.71212 68.825039,68.825039 0 0 0 -24.38455,-4.2368 c -38.55094,0 -71.1074,24.86989 -71.1074,57.41323 0,20.63308 13.36625,38.51159 33.5927,48.50676 a 87.123291,87.123291 0 0 0 -6.55851,4.48603 309.75858,309.75858 0 0 0 -41.18746,34.79947 c -37.94756,38.03938 -61.29587,81.75842 -61.29587,130.26519 0,134.75121 105.97246,198.86724 233.71918,198.86724 h 4.7746 c 127.7336,0 233.71918,-64.11603 233.71918,-198.86724 -0.0656,-48.50676 -23.41389,-92.22582 -61.41392,-130.26519 z M 631.4012,560.30205 H 576.00799 V 581.145 h 40.84642 c 11.83156,0 21.35452,9.36556 21.35452,20.84296 0,11.4774 -9.60166,20.84295 -21.35452,20.84295 h -40.84642 v 32.11048 c 0,11.54299 -9.60166,20.84296 -21.35452,20.84296 -11.83156,0 -21.36763,-9.36556 -21.36763,-20.84296 v -32.11048 h -42.72216 c -11.83156,0 -21.35452,-9.36555 -21.35452,-20.84295 0,-11.4774 9.60167,-20.84296 21.35452,-20.84296 h 42.72216 v -20.84295 h -55.24892 c -11.81844,0 -21.35452,-9.36556 -21.35452,-20.84296 0,-11.4774 9.60167,-20.84295 21.35452,-20.84295 h 25.05352 l -39.86264,-38.9051 a 20.449445,20.449445 0 0 1 0,-29.46085 21.708679,21.708679 0 0 1 30.19539,0 l 61.23028,59.74806 61.23028,-59.74806 a 21.708679,21.708679 0 0 1 30.1954,0 20.462562,20.462562 0 0 1 0,29.46085 l -39.87576,38.9051 h 25.19781 c 11.81844,0 21.35451,9.36555 21.35452,20.84295 0,11.4774 -9.53608,20.84296 -21.35452,20.84296 z"
       fill="#ffffff"
       p-id="4050"
       id="path1550" />
    <path
       d="m 791.19281,471.68342 a 309.75858,309.75858 0 0 0 -41.18746,-34.79948 89.930335,89.930335 0 0 0 -6.57163,-4.48602 c 20.23957,-9.92959 33.59271,-27.87368 33.59271,-48.50676 0,-32.59582 -32.54335,-57.41323 -71.09429,-57.41323 -8.95893,0 -17.03902,1.48222 -24.39767,4.2368 a 47.221296,47.221296 0 0 0 -8.39489,3.71212 c -1.04937,0.47221 -3.922,-0.23611 -4.97136,-1.49534 -2.87263,-4.24992 -7.35865,-9.20816 -13.66794,-14.41562 -10.91337,-9.02451 -23.71558,-14.95341 -38.06561,-16.14706 -14.28444,1.19365 -27.08666,7.12255 -38.06561,16.14706 a 73.376647,73.376647 0 0 0 -13.66794,14.41562 c -1.03625,1.25923 -3.922,1.96755 -4.95824,1.49534 a 40.282389,40.282389 0 0 0 -8.3949,-3.71212 68.943092,68.943092 0 0 0 -24.39767,-4.2368 c -38.55094,0 -71.1074,24.86988 -71.1074,57.41323 0,20.63308 13.36625,38.51159 33.59271,48.50676 a 87.123291,87.123291 0 0 0 -6.55852,4.48602 309.75858,309.75858 0 0 0 -41.18746,34.79947 c -37.94756,38.03938 -61.29587,81.75843 -61.29587,130.2652 0,134.75121 105.97246,198.86724 233.71919,198.86724 h 4.77459 c 127.73361,0 233.71918,-64.11603 233.71918,-198.86724 -0.0656,-48.50677 -23.41389,-92.22582 -61.41392,-130.26519 z m -94.20648,141.08673 h -55.3932 v 20.84296 h 40.84642 c 11.83155,0 21.35452,9.36556 21.35452,20.84295 0,11.4774 -9.60167,20.84296 -21.35452,20.84296 h -40.84642 v 32.11048 c 0,11.54298 -9.60167,20.84296 -21.35452,20.84296 -11.83156,0 -21.36764,-9.36556 -21.36764,-20.84296 v -32.11048 h -42.72216 c -11.83155,0 -21.35451,-9.36556 -21.35451,-20.84296 0,-11.47739 9.60166,-20.84295 21.35451,-20.84295 h 42.72216 v -20.84296 h -55.2358 c -11.83156,0 -21.36763,-9.36555 -21.36764,-20.84295 0,-11.4774 9.60167,-20.84296 21.36764,-20.84296 h 25.0404 l -39.86264,-38.9051 a 20.449445,20.449445 0 0 1 0,-29.46084 21.708679,21.708679 0 0 1 30.1954,0 l 61.23028,59.74806 61.23028,-59.74806 a 21.708679,21.708679 0 0 1 30.19539,0 20.462562,20.462562 0 0 1 0,29.46084 l -39.87576,38.9051 h 25.19781 c 11.81844,0 21.35452,9.36556 21.35452,20.84296 0,11.4774 -9.53608,20.84295 -21.35452,20.84295 z"
       fill="#16aeff"
       p-id="4051"
       id="path1552" />
  </g>
</svg>
